<svg xmlns="http://www.w3.org/2000/svg" viewBox="100 0 2100 3322" width="100" height="100">
  <!-- Head -->
  <path fill="white" d="M 752.035156 343.089844 C 752.035156 434.089844 788.183594 521.351562 852.523438 585.691406 C 916.867188 650.03125 1004.128906 686.179688 1095.128906 686.179688 C 1186.121094 686.179688 1273.390625 650.03125 1337.730469 585.691406 C 1402.070312 521.351562 1438.21875 434.089844 1438.21875 343.089844 C 1438.21875 153.609375 1284.609375 0 1095.128906 0 C 905.644531 0 752.035156 153.609375 752.035156 343.089844 Z"/>
  <!-- Body -->
  <path fill="white" d="M 1273.328125 757.828125 L 872.253906 757.828125 C 759.816406 757.828125 669.300781 848.351562 669.300781 960.78125 L 669.300781 1860.820312 C 669.300781 1973.25 759.816406 2063.769531 872.253906 2063.769531 L 1273.328125 2063.769531 C 1385.769531 2063.769531 1476.28125 1973.25 1476.28125 1860.820312 L 1476.28125 960.78125 C 1476.28125 848.351562 1385.769531 757.828125 1273.328125 757.828125 Z"/>
  <!-- Right leg -->
  <path fill="none" stroke="white" stroke-width="373" stroke-linecap="round" d="M 1284.878906 2063.769531 L 1284.878906 3135.609375"/>
  <!-- Left leg -->
  <path fill="none" stroke="white" stroke-width="373" stroke-linecap="round" d="M 852.164062 2063.769531 L 852.164062 3135.609375"/>
  <!-- Left arm -->
  <path fill="none" stroke="white" stroke-width="298" stroke-linecap="round" d="M 808.984375 963.070312 L 482.996094 730.507812 L 149.175781 452.089844"/>
  <!-- Right arm -->
  <path fill="none" stroke="white" stroke-width="298" stroke-linecap="round" d="M 1366.589844 963.070312 L 1781 782.019531 L 2089.320312 563.800625"/>
</svg>
